<svg xmlns="http://www.w3.org/2000/svg" version="1.1" xmlns:xlink="http://www.w3.org/1999/xlink" xmlns:svgjs="http://svgjs.dev/svgjs" width="128" height="128" viewBox="0 0 128 128"><g transform="matrix(0.8046875,0,0,0.8046875,12.760752631578946,12.74870511785165)"><svg viewBox="0 0 95 95" data-background-color="#0023ff" preserveAspectRatio="xMidYMid meet" height="128" width="128" xmlns="http://www.w3.org/2000/svg" xmlns:xlink="http://www.w3.org/1999/xlink"><g id="tight-bounds" transform="matrix(1,0,0,1,-0.24049999999999727,-0.2293882154942395)"><svg viewBox="0 0 95.481 95.45877643098848" height="95.45877643098848" width="95.481"><g><svg viewBox="0 0 95.481 95.45877643098848" height="95.45877643098848" width="95.481"><g><svg viewBox="0 0 95.481 95.45877643098848" height="95.45877643098848" width="95.481"><g id="textblocktransform"><svg viewBox="0 0 95.481 95.45877643098848" height="95.45877643098848" width="95.481" id="textblock"><g><svg viewBox="0 0 95.481 95.45877643098848" height="95.45877643098848" width="95.481"><g><svg viewBox="0 0 95.481 95.45877643098848" height="95.45877643098848" width="95.481"><g><svg xmlns="http://www.w3.org/2000/svg" xmlns:xlink="http://www.w3.org/1999/xlink" version="1.1" x="0" y="0" viewBox="22.073999999999998 22.08 55.85300000000001 55.84" enable-background="new 0 0 100 100" xml:space="preserve" height="95.45877643098848" width="95.481" class="icon-icon-0" data-fill-palette-color="accent" id="icon-0"><g fill="#ff4136" data-fill-palette-color="accent"><path fill="#ff4136" d="M77.927 49.981c0-0.06-0.013-0.115-0.018-0.174C77.805 34.5 65.324 22.08 49.995 22.08c-15.396 0-27.921 12.524-27.921 27.92 0 15.396 12.525 27.92 27.921 27.92 15.347 0 27.838-12.447 27.916-27.777C77.915 50.088 77.927 50.036 77.927 49.981zM49.995 26.252c12.384 0 22.579 9.53 23.649 21.642H60.945c-0.987-5.148-5.519-9.051-10.951-9.051-5.432 0-9.963 3.903-10.951 9.051H26.345C27.414 35.783 37.609 26.252 49.995 26.252zM56.979 50c0 3.851-3.134 6.983-6.984 6.983-3.851 0-6.984-3.133-6.984-6.983 0-3.851 3.133-6.984 6.984-6.984C53.845 43.016 56.979 46.149 56.979 50zM49.995 73.748c-12.398 0-22.602-9.551-23.653-21.681h12.697c0.973 5.166 5.512 9.089 10.957 9.089 5.445 0 9.984-3.923 10.957-9.089h12.694C72.594 64.197 62.392 73.748 49.995 73.748z" data-fill-palette-color="accent"></path><circle fill="#ff4136" cx="49.994" cy="50" r="3.4" data-fill-palette-color="accent"></circle></g></svg></g></svg></g></svg></g></svg></g></svg></g></svg></g><defs></defs></svg><rect width="95.481" height="95.45877643098848" fill="none" stroke="none" visibility="hidden"></rect></g></svg></g></svg>